<?xml version="1.0" standalone="no"?>
<!DOCTYPE svg PUBLIC "-//W3C//DTD SVG 20010904//EN"
 "http://www.w3.org/TR/2001/REC-SVG-20010904/DTD/svg10.dtd">
<svg version="1.0" xmlns="http://www.w3.org/2000/svg"
 width="500.000000pt" height="500.000000pt" viewBox="0 0 500.000000 500.000000"
 preserveAspectRatio="xMidYMid meet">

<g transform="translate(0.000000,500.000000) scale(0.100000,-0.100000)"
fill="#000000" stroke="none">
<path d="M1827 4378 c-30 -51 -88 -150 -129 -219 l-75 -126 1189 -723 c653
-398 1187 -724 1186 -725 -2 -2 -624 100 -1382 226 -759 126 -1380 228 -1381
227 -5 -8 -239 -1678 -235 -1678 4 0 1617 -267 2415 -400 193 -32 351 -57 351
-56 1 0 55 377 121 836 l120 835 131 220 c72 121 128 223 124 226 -4 3 -531
325 -1172 714 -641 390 -1175 715 -1187 722 -20 14 -23 10 -76 -79z m267 -106
l44 -28 -114 -68 -114 -68 -46 27 c-25 15 -43 30 -39 33 15 16 201 130 212
131 7 1 32 -12 57 -27z m93 -408 c459 -286 709 -442 1393 -867 239 -149 437
-272 439 -274 2 -1 -1 -15 -8 -29 -8 -17 -17 -25 -29 -22 -17 5 -2249 1362
-2266 1379 -10 9 22 79 36 79 4 0 199 -120 435 -266z m299 170 c37 -22 43 -29
32 -39 -21 -19 -206 -125 -217 -125 -16 0 -94 50 -88 57 12 12 212 133 220
133 5 0 29 -12 53 -26z m391 -239 c23 -14 43 -28 43 -30 0 -8 -220 -135 -233
-135 -6 0 -29 11 -51 25 l-39 23 74 47 c41 26 90 57 109 70 44 30 45 30 97 0z
m389 -236 c19 -11 34 -24 34 -28 0 -4 -52 -38 -116 -75 l-116 -69 -37 21 c-20
12 -36 26 -36 31 0 12 204 140 224 141 7 0 29 -9 47 -21z m390 -237 l45 -29
-123 -72 -123 -73 -43 24 c-23 12 -41 26 -39 31 3 9 217 145 230 146 4 1 28
-12 53 -27z m385 -234 c22 -12 39 -25 39 -29 0 -3 -55 -39 -122 -78 l-122 -72
-34 18 c-18 10 -37 23 -42 28 -6 7 33 37 108 83 64 39 121 72 126 72 4 0 26
-10 47 -22z m-1617 -302 c611 -102 1202 -199 1314 -218 l204 -33 -6 -29 c-4
-17 -10 -33 -14 -37 -4 -3 -599 85 -1322 195 l-1315 201 -3 53 c-3 44 0 52 14
52 9 0 517 -83 1128 -184z m199 -230 c698 -101 1270 -186 1273 -188 4 -4 -313
-1309 -319 -1313 -3 -3 -2321 408 -2326 412 -6 4 18 1091 25 1201 l6 83 37 -5
c20 -4 607 -89 1304 -190z"/>
<path d="M1480 2649 c0 -6 -31 -250 -70 -542 -70 -528 -76 -587 -63 -587 6 0
1102 -184 1762 -296 211 -36 386 -62 390 -59 9 10 179 1149 172 1156 -3 4
-159 29 -346 57 -1217 184 -1803 272 -1822 277 -13 3 -23 1 -23 -6z m308 -185
c50 -4 92 -9 92 -12 0 -2 -6 -10 -14 -16 -8 -6 -30 -73 -50 -148 -41 -150 -40
-167 11 -186 50 -19 81 -22 107 -12 33 12 34 42 0 75 -14 14 -22 30 -18 36 4
6 12 2 21 -11 24 -34 59 -43 95 -24 23 12 29 13 26 2 -2 -7 -14 -17 -26 -23
-34 -15 -30 -61 8 -80 32 -17 97 -20 120 -5 16 10 28 110 29 242 1 86 -8 103
-63 114 -55 10 -69 2 -98 -56 l-27 -55 6 54 c5 49 4 56 -18 73 l-24 19 25 -5
c14 -3 383 -40 820 -82 437 -41 800 -77 807 -79 8 -3 -40 -156 -139 -452 -83
-246 -153 -450 -154 -451 -4 -5 -1926 177 -1932 182 -3 4 241 842 263 904 3 7
13 11 22 8 10 -3 60 -8 111 -12z"/>
<path d="M2879 2320 c-27 -16 -43 -64 -29 -90 9 -16 9 -24 1 -29 -18 -11 -47
-205 -35 -238 21 -62 114 -68 139 -10 8 20 10 38 4 49 -5 10 -5 37 1 69 15 76
13 89 -10 89 -11 0 -20 5 -20 10 0 6 6 10 14 10 21 0 56 48 56 77 0 52 -74 90
-121 63z"/>
<path d="M2294 2310 c-46 -18 -94 -102 -94 -164 0 -11 9 -39 21 -62 24 -50 83
-84 146 -84 151 0 200 234 63 302 -37 19 -101 23 -136 8z m71 -177 c-3 -14 -9
-22 -13 -19 -8 8 -3 77 6 91 10 14 15 -42 7 -72z"/>
<path d="M2529 2253 c-8 -20 -8 -44 0 -88 38 -212 30 -198 114 -210 35 -6 53
-3 71 9 28 18 116 186 116 220 0 40 -58 74 -105 62 -21 -5 -26 -17 -42 -86
-18 -79 -42 -115 -29 -42 20 106 20 119 -5 135 -13 8 -43 18 -66 22 -40 6 -43
5 -54 -22z"/>
<path d="M3052 2160 c-38 -23 -71 -88 -72 -138 0 -45 22 -95 54 -120 41 -32
127 -48 176 -33 37 11 40 15 40 47 0 34 0 34 -37 28 -43 -6 -114 14 -121 34
-3 11 3 10 26 -2 43 -22 104 -20 135 4 56 45 38 144 -33 182 -47 25 -126 24
-168 -2z m110 -102 c-9 -9 -15 -9 -24 0 -9 9 -7 12 12 12 19 0 21 -3 12 -12z"/>
<path d="M1672 2003 c-5 -10 -20 -83 -33 -162 l-24 -143 24 -19 c33 -27 116
-27 131 0 15 29 12 61 -5 61 -8 0 -15 5 -15 11 0 6 6 9 13 6 8 -3 38 -8 68
-12 66 -8 82 5 77 62 l-3 38 -57 9 c-32 4 -58 13 -58 18 0 6 16 7 43 2 83 -15
101 -12 118 24 14 26 18 29 23 16 4 -10 2 -20 -4 -24 -16 -10 -45 -199 -36
-233 8 -35 63 -61 98 -48 38 14 48 35 46 87 -1 27 1 75 6 106 8 55 7 56 -13
51 -31 -8 -26 9 9 29 36 21 49 62 29 97 -29 51 -110 53 -135 2 -7 -12 -13 -18
-15 -12 -4 11 -207 51 -256 51 -12 0 -26 -8 -31 -17z"/>
<path d="M2121 1872 c-6 -10 -10 -45 -10 -78 0 -32 -4 -81 -10 -109 -15 -77
17 -112 95 -103 25 3 29 8 32 38 6 72 24 142 34 132 6 -6 6 -23 -1 -48 -19
-68 -14 -110 15 -133 33 -26 65 -27 95 -2 21 17 24 29 27 103 5 134 4 140 -22
166 -32 32 -101 40 -146 17 -31 -16 -33 -16 -26 1 13 35 -65 50 -83 16z"/>
<path d="M2613 1883 c-24 -9 -15 -53 12 -63 14 -5 25 -14 25 -20 0 -7 -7 -7
-22 1 -33 18 -112 15 -143 -5 -59 -39 -84 -160 -45 -224 20 -33 71 -62 109
-62 14 0 19 5 15 15 -4 8 -2 15 4 15 5 0 12 -7 16 -15 9 -25 55 -38 88 -24 33
13 43 39 40 99 -2 25 4 81 12 125 21 104 20 121 -4 145 -19 19 -76 26 -107 13z
m-30 -205 c-9 -51 -22 -69 -23 -31 0 37 8 63 21 63 5 0 6 -15 2 -32z"/>
<path d="M2821 1752 c-54 -27 -75 -63 -79 -135 -2 -50 1 -69 18 -95 27 -44 90
-72 162 -72 65 0 91 18 86 58 -3 25 -6 26 -55 23 -48 -2 -123 22 -110 36 3 2
15 -1 28 -7 12 -7 45 -13 72 -13 42 -1 53 3 73 27 48 55 23 144 -49 177 -53
23 -102 24 -146 1z m97 -103 c-2 -6 -8 -10 -13 -10 -5 0 -11 4 -13 10 -2 6 4
11 13 11 9 0 15 -5 13 -11z"/>
<path d="M3071 1711 c-6 -11 -11 -43 -11 -72 0 -29 -5 -81 -11 -116 -13 -74
-2 -96 52 -107 62 -12 75 -1 87 72 9 50 8 68 -1 74 -21 13 -2 17 36 8 55 -12
75 -3 87 39 5 20 10 44 10 53 0 23 -33 39 -83 40 -33 0 -46 -5 -64 -27 -27
-31 -41 -28 -21 4 15 25 6 36 -39 46 -25 5 -34 2 -42 -14z"/>
</g>
</svg>
